<?xml version="1.0" standalone="no"?>
<!DOCTYPE svg PUBLIC "-//W3C//DTD SVG 20010904//EN"
 "http://www.w3.org/TR/2001/REC-SVG-20010904/DTD/svg10.dtd">
<svg version="1.0" xmlns="http://www.w3.org/2000/svg"
 width="260.000000pt" height="260.000000pt" viewBox="0 0 260.000000 260.000000"
 preserveAspectRatio="xMidYMid meet">
<metadata>
Created by potrace 1.14, written by Peter Selinger 2001-2017
</metadata>
<g transform="translate(0.000000,260.000000) scale(0.100000,-0.100000)"
fill="#000000" stroke="none">
<path d="M1170 2474 c-14 -2 -56 -9 -95 -15 -88 -14 -232 -61 -310 -102 -166
-86 -343 -237 -441 -377 -281 -401 -285 -940 -11 -1345 59 -87 207 -235 293
-295 147 -102 319 -173 484 -201 96 -17 304 -17 400 0 230 39 445 149 618 315
103 99 168 185 227 298 176 338 180 739 12 1073 -58 116 -110 188 -210 292
-222 230 -491 349 -807 358 -74 2 -146 2 -160 -1z m349 -135 c327 -53 616
-262 779 -562 109 -199 148 -471 103 -704 -21 -107 -76 -255 -122 -328 -16
-25 -29 -48 -29 -51 0 -6 -96 -125 -132 -164 -37 -41 -138 -123 -198 -161
-469 -302 -1103 -185 -1442 265 -159 212 -239 497 -209 752 48 417 309 752
701 901 150 58 382 80 549 52z"/>
<path d="M1208 2273 c-28 -3 -38 -10 -48 -33 -6 -15 -19 -30 -29 -33 -13 -3
-17 -13 -15 -41 4 -41 2 -42 -31 -20 -23 15 -24 15 -31 -10 -4 -16 -13 -26
-24 -26 -19 0 -50 -30 -50 -48 0 -7 -9 -12 -19 -12 -51 0 -67 -25 -26 -40 14
-5 25 -14 25 -20 0 -13 -33 -13 -47 1 -7 7 -10 -1 -9 -28 1 -31 5 -39 24 -41
31 -5 28 -28 -5 -37 -42 -10 -73 -33 -73 -55 0 -24 26 -39 54 -32 20 5 20 4
-3 -21 l-24 -26 28 -11 27 -10 -48 -26 c-55 -29 -75 -51 -72 -79 1 -11 -1 -26
-6 -33 -6 -10 2 -23 23 -43 36 -32 35 -63 0 -74 -15 -5 -17 -10 -10 -19 14
-16 4 -26 -26 -26 -18 0 -23 -5 -23 -25 0 -18 10 -30 40 -47 53 -31 44 -56
-12 -33 -14 5 -18 2 -18 -14 0 -12 -4 -21 -10 -21 -5 0 -10 -9 -10 -19 0 -35
-12 -51 -38 -51 -25 0 -25 0 -6 -21 14 -15 15 -22 6 -28 -13 -8 -22 -37 -26
-78 -3 -25 -50 -67 -69 -60 -15 5 -47 -10 -47 -23 0 -14 103 -40 158 -40 36 0
52 -4 56 -16 5 -13 11 -10 36 15 18 18 37 28 45 24 9 -3 22 0 30 7 8 6 19 9
25 5 6 -4 22 3 35 15 20 19 32 22 74 18 37 -4 51 -1 55 9 4 9 14 11 31 7 16
-4 34 0 51 11 14 9 35 15 46 13 20 -3 22 -10 26 -133 3 -110 4 -268 3 -475 0
-25 -6 -55 -13 -68 -9 -18 -9 -27 0 -40 23 -33 24 -43 6 -63 -18 -20 -18 -21
0 -35 14 -10 39 -12 95 -8 132 9 145 18 96 64 -14 13 -25 32 -25 43 0 10 -11
32 -25 48 -22 27 -24 38 -24 122 0 51 -3 115 -5 142 -3 28 -8 102 -11 165 -2
63 -7 131 -10 151 -7 38 8 62 19 33 4 -11 14 -14 35 -9 21 4 32 2 38 -10 6
-10 27 -17 61 -20 63 -4 75 -11 67 -36 -10 -29 4 -43 25 -24 9 9 33 16 51 16
19 -1 43 0 54 0 75 2 159 -5 215 -18 53 -13 73 -13 108 -4 23 7 42 15 42 20 0
8 -50 35 -82 45 -27 8 -22 26 7 26 16 0 25 6 25 15 0 12 -11 15 -50 13 -46 -2
-52 0 -85 37 -35 40 -50 45 -122 45 -22 -1 -37 6 -45 19 -10 17 -19 19 -54 14
-36 -5 -42 -3 -46 15 -4 16 -11 19 -28 15 -22 -6 -40 9 -40 34 0 21 59 25 136
8 43 -10 94 -15 117 -12 22 3 49 1 59 -4 10 -6 24 -6 31 -2 6 4 19 6 29 5 23
-4 50 36 38 58 -5 10 -32 27 -60 39 -27 12 -50 26 -50 31 0 6 -10 10 -22 10
-44 0 -50 14 -19 44 25 24 31 26 49 15 30 -19 37 -5 18 35 -9 19 -16 39 -16
45 0 16 -15 14 -30 -4 -7 -8 -18 -15 -25 -15 -7 0 -18 -7 -25 -15 -11 -13 -16
-12 -40 5 -16 11 -42 20 -60 20 -17 0 -45 7 -62 16 -22 12 -45 14 -78 10 -37
-5 -50 -3 -61 10 -11 14 -10 18 6 30 21 15 60 12 130 -12 47 -16 195 -19 195
-4 0 6 12 10 26 10 23 0 25 3 20 26 -4 15 -2 32 5 40 9 11 7 14 -14 14 -14 0
-29 5 -32 10 -4 7 -12 7 -25 0 -28 -15 -51 -12 -66 8 -19 24 -17 30 9 34 24 3
26 31 2 58 -13 16 -13 69 1 91 5 9 -1 11 -24 6 -29 -6 -32 -4 -32 17 0 19 -7
25 -36 31 -26 4 -39 2 -45 -6 -4 -8 -11 -11 -14 -7 -4 3 0 16 7 28 10 16 20
20 39 16 22 -4 28 -1 32 19 2 14 -2 30 -9 36 -8 6 -14 17 -14 25 0 19 -38 28
-56 13 -11 -9 -18 -9 -22 -2 -14 22 -50 24 -83 4 -38 -22 -110 -32 -116 -16
-3 10 96 45 125 45 7 0 12 13 12 29 0 18 8 34 21 43 18 12 20 18 11 35 -11 20
-65 38 -83 27 -5 -3 -9 -1 -9 5 0 5 5 13 10 16 22 14 8 20 -36 16 -46 -3 -47
-3 -40 23 6 25 5 26 -38 26 -30 0 -46 5 -50 15 -3 8 -9 14 -13 13 -4 -1 -24
-3 -45 -5z m0 -181 c7 -22 -13 -12 -33 16 l-19 27 24 -16 c13 -9 26 -21 28
-27z m132 8 c0 -5 -7 -10 -16 -10 -8 0 -12 5 -9 10 3 6 10 10 16 10 5 0 9 -4
9 -10z m-58 -22 c-7 -7 -12 -8 -12 -2 0 6 3 14 7 17 3 4 9 5 12 2 2 -3 -1 -11
-7 -17z m178 1 c0 -5 -4 -9 -10 -9 -5 0 -10 7 -10 16 0 8 5 12 10 9 6 -3 10
-10 10 -16z m-340 -18 c0 -5 -7 -11 -15 -15 -9 -3 -15 0 -15 9 0 8 7 15 15 15
8 0 15 -4 15 -9z m110 -66 c0 -8 -4 -15 -10 -15 -5 0 -10 7 -10 15 0 8 5 15
10 15 6 0 10 -7 10 -15z m73 -10 c1 -5 -6 -11 -15 -13 -11 -2 -18 3 -18 13 0
17 30 18 33 0z m-248 -25 c3 -5 1 -10 -4 -10 -6 0 -11 5 -11 10 0 6 2 10 4 10
3 0 8 -4 11 -10z m376 -80 c7 -5 11 -11 8 -14 -8 -8 -119 6 -119 15 0 10 93 9
111 -1z m-181 -35 c0 -8 -6 -15 -14 -15 -17 0 -28 14 -19 24 12 12 33 6 33 -9z
m-56 -26 c-8 -14 -24 -10 -24 6 0 9 6 12 15 9 8 -4 12 -10 9 -15z m-224 -49
c8 -5 11 -10 5 -10 -5 0 -17 5 -25 10 -8 5 -10 10 -5 10 6 0 17 -5 25 -10z
m427 -36 c-9 -9 -28 6 -21 18 4 6 10 6 17 -1 6 -6 8 -13 4 -17z m298 -4 c3 -5
-1 -10 -9 -10 -9 0 -16 5 -16 10 0 6 4 10 9 10 6 0 13 -4 16 -10z m-240 -10
c3 -5 -1 -10 -10 -10 -9 0 -13 5 -10 10 3 6 8 10 10 10 2 0 7 -4 10 -10z
m-120 -40 c3 -5 1 -10 -4 -10 -6 0 -11 5 -11 10 0 6 2 10 4 10 3 0 8 -4 11
-10z m-165 -50 c0 -5 -4 -10 -10 -10 -5 0 -10 5 -10 10 0 6 5 10 10 10 6 0 10
-4 10 -10z m-250 -60 c0 -5 -2 -10 -4 -10 -3 0 -8 5 -11 10 -3 6 -1 10 4 10 6
0 11 -4 11 -10z m232 -58 c-19 -6 -44 6 -37 18 4 7 14 6 28 -2 14 -7 17 -13 9
-16z m-102 -15 c0 -22 -43 -37 -63 -22 -22 16 -21 22 1 28 35 9 62 7 62 -6z
m-105 -10 c26 -20 11 -36 -27 -28 -40 8 -52 41 -16 41 13 0 32 -6 43 -13z
m395 -17 c0 -5 -4 -10 -10 -10 -5 0 -10 5 -10 10 0 6 5 10 10 10 6 0 10 -4 10
-10z m116 -71 c8 -17 13 -33 11 -36 -3 -2 -22 0 -44 6 -21 6 -50 11 -64 11
-28 0 -55 23 -45 38 3 5 32 9 65 10 58 2 61 0 77 -29z m289 -29 c3 -5 -1 -10
-9 -10 -9 0 -16 5 -16 10 0 6 4 10 9 10 6 0 13 -4 16 -10z m-375 -29 c0 -11
-26 -22 -34 -14 -12 12 -5 23 14 23 11 0 20 -4 20 -9z m-460 -15 c0 -11 -19
-15 -25 -6 -3 5 1 10 9 10 9 0 16 -2 16 -4z m619 -56 c41 -9 35 -27 -12 -33
-47 -7 -89 2 -125 24 -29 18 -28 25 6 42 24 12 31 11 67 -7 22 -12 51 -23 64
-26z m-433 25 c18 -14 18 -14 -8 -15 -27 0 -43 12 -31 24 9 9 17 8 39 -9z
m-96 -16 c0 -5 -7 -9 -15 -9 -15 0 -20 12 -9 23 8 8 24 -1 24 -14z m245 1 c3
-5 1 -10 -4 -10 -6 0 -11 5 -11 10 0 6 2 10 4 10 3 0 8 -4 11 -10z m119 -51
c-3 -5 -10 -7 -15 -3 -5 3 -7 10 -3 15 3 5 10 7 15 3 5 -3 7 -10 3 -15z"/>
<path d="M1191 1044 c0 -11 3 -14 6 -6 3 7 2 16 -1 19 -3 4 -6 -2 -5 -13z"/>
</g>
</svg>
